<svg width="24" height="24" viewBox="0 0 24 24" fill="none" xmlns="http://www.w3.org/2000/svg">
<g id="Checkbox">
<g id="Group">
<path id="Vector" d="M21 3H3V21H21V3Z" stroke="#884F56" stroke-width="1.2" stroke-linecap="round" stroke-linejoin="round"/>
<path id="Vector_2" d="M20.6124 3H3.38756C3.28477 3 3.18619 3.04083 3.11351 3.11351C3.04083 3.18619 3 3.28477 3 3.38756V20.6124C3 20.7152 3.04083 20.8138 3.11351 20.8865C3.18619 20.9592 3.28477 21 3.38756 21H20.6124C20.7152 21 20.8138 20.9592 20.8865 20.8865C20.9592 20.8138 21 20.7152 21 20.6124V3.38756C21 3.28477 20.9592 3.18619 20.8865 3.11351C20.8138 3.04083 20.7152 3 20.6124 3ZM16.7024 9.88995L11.0182 15.5742C10.924 15.671 10.8116 15.7482 10.6874 15.8014C10.5633 15.8546 10.4298 15.8828 10.2947 15.8842C10.1563 15.883 10.0195 15.8541 9.89233 15.7994C9.76516 15.7447 9.65017 15.6652 9.55407 15.5655L7.29761 13.3091C7.19833 13.2132 7.11964 13.098 7.06633 12.9707C7.01303 12.8433 6.98622 12.7065 6.98756 12.5684C6.98756 12.4331 7.01504 12.2992 7.06834 12.1749C7.12163 12.0505 7.19963 11.9383 7.29761 11.845C7.3911 11.746 7.50499 11.6685 7.6314 11.618C7.75781 11.5674 7.89371 11.545 8.02966 11.5522C8.1629 11.5522 8.29477 11.5789 8.41753 11.6307C8.5403 11.6824 8.65147 11.7582 8.7445 11.8536L10.2775 13.3866L15.2469 8.43445C15.3356 8.33526 15.4445 8.25626 15.5663 8.20278C15.6882 8.14929 15.8201 8.12256 15.9531 8.1244C16.0912 8.12307 16.228 8.14987 16.3554 8.20317C16.4827 8.25648 16.5979 8.33517 16.6938 8.43445C16.7907 8.52839 16.8677 8.64083 16.9203 8.7651C16.9729 8.88937 17 9.02295 17 9.15789C17 9.29284 16.9729 9.42642 16.9203 9.55069C16.8677 9.67496 16.7907 9.7874 16.6938 9.88134L16.7024 9.88995Z" fill="#884F56"/>
</g>
</g>
</svg>
